<svg width="800" height="350" xmlns="http://www.w3.org/2000/svg">
  <defs>
    <linearGradient id="solutionGrad" x1="0%" y1="0%" x2="100%" y2="100%">
      <stop offset="0%" style="stop-color:#FF6B00;stop-opacity:0.1" />
      <stop offset="100%" style="stop-color:#00D4FF;stop-opacity:0.1" />
    </linearGradient>
    <marker id="arrowhead" markerWidth="10" markerHeight="10" refX="9" refY="3" orient="auto">
      <polygon points="0 0, 10 3, 0 6" fill="#FF6B00" />
    </marker>
  </defs>
  
  <!-- Background -->
  <rect width="800" height="350" fill="url(#solutionGrad)"/>
  
  <!-- Central Platform -->
  <g transform="translate(400, 175)">
    <circle r="60" fill="#FF6B00" opacity="0.2"/>
    <circle r="45" fill="#FF6B00"/>
    <text y="5" text-anchor="middle" font-size="16" font-weight="bold" fill="white">CrediQuest</text>
    <text y="20" text-anchor="middle" font-size="10" fill="white">Blockchain</text>
    <text y="32" text-anchor="middle" font-size="10" fill="white">Platform</text>
  </g>
  
  <!-- Feature 1: Smart Contracts -->
  <g transform="translate(150, 80)">
    <rect x="-50" y="-30" width="100" height="60" rx="8" fill="white" stroke="#FF6B00" stroke-width="2"/>
    <path d="M -20 -10 L -10 0 L -20 10 M 0 -10 L 10 0 L 0 10 M 20 -10 L 30 0 L 20 10" stroke="#FF6B00" stroke-width="2" fill="none"/>
    <text y="30" text-anchor="middle" font-size="12" font-weight="bold" fill="#333">Smart Contracts</text>
    <text y="45" text-anchor="middle" font-size="9" fill="#666">Automated escrow</text>
  </g>
  <line x1="200" y1="100" x2="350" y2="150" stroke="#FF6B00" stroke-width="2" marker-end="url(#arrowhead)"/>
  
  <!-- Feature 2: Gaming -->
  <g transform="translate(650, 80)">
    <rect x="-50" y="-30" width="100" height="60" rx="8" fill="white" stroke="#FF6B00" stroke-width="2"/>
    <rect x="-15" y="-10" width="30" height="20" rx="10" fill="#FF6B00"/>
    <circle cx="-5" cy="0" r="2" fill="white"/>
    <circle cx="5" cy="0" r="2" fill="white"/>
    <text y="30" text-anchor="middle" font-size="12" font-weight="bold" fill="#333">Skill Gaming</text>
    <text y="45" text-anchor="middle" font-size="9" fill="#666">Tournament prizes</text>
  </g>
  <line x1="600" y1="100" x2="450" y2="150" stroke="#FF6B00" stroke-width="2" marker-end="url(#arrowhead)"/>
  
  <!-- Feature 3: Credit Scoring -->
  <g transform="translate(150, 270)">
    <rect x="-50" y="-30" width="100" height="60" rx="8" fill="white" stroke="#FF6B00" stroke-width="2"/>
    <path d="M -20 5 L -10 -5 L 0 0 L 10 -10 L 20 -5" stroke="#FF6B00" stroke-width="3" fill="none"/>
    <text y="30" text-anchor="middle" font-size="12" font-weight="bold" fill="#333">Credit Scoring</text>
    <text y="45" text-anchor="middle" font-size="9" fill="#666">On-chain reputation</text>
  </g>
  <line x1="200" y1="250" x2="350" y2="200" stroke="#FF6B00" stroke-width="2" marker-end="url(#arrowhead)"/>
  
  <!-- Feature 4: DeFi Access -->
  <g transform="translate(650, 270)">
    <rect x="-50" y="-30" width="100" height="60" rx="8" fill="white" stroke="#FF6B00" stroke-width="2"/>
    <circle cx="0" cy="-5" r="12" fill="none" stroke="#FF6B00" stroke-width="2"/>
    <text y="0" text-anchor="middle" font-size="14" font-weight="bold" fill="#FF6B00">$</text>
    <text y="30" text-anchor="middle" font-size="12" font-weight="bold" fill="#333">DeFi Integration</text>
    <text y="45" text-anchor="middle" font-size="9" fill="#666">Real-world loans</text>
  </g>
  <line x1="600" y1="250" x2="450" y2="200" stroke="#FF6B00" stroke-width="2" marker-end="url(#arrowhead)"/>
  
  <!-- Bottom benefit text -->
  <text x="400" y="330" text-anchor="middle" font-size="14" font-weight="bold" fill="#333">Transparent • Trustless • Gamified • Credit-Building</text>
</svg>
